<mxfile host="app.diagrams.net" modified="2025-10-08T23:22:50.350830Z" agent="python" version="22.0.0"><diagram id="1759965770350842" name="Proposed_Architecture"><mxGraphModel dx="1200" dy="800" grid="1" gridSize="10" guides="1" tooltips="1" connect="1" arrows="1" fold="1" page="1" pageScale="1" pageWidth="2200" pageHeight="1400" math="0" shadow="0"><root><mxCell id="0" /><mxCell id="1" parent="0" /><mxCell id="ingress" value="Ingress/Reverse Proxy (Nginx)&#10;TLS, rate limits" style="rounded=1;whiteSpace=wrap;html=1;" vertex="1" parent="1"><mxGeometry x="440" y="120" width="380" height="110" as="geometry" /></mxCell><mxCell id="p_client" value="Client: React SPA&#10;Auth via JWT + Refresh&#10;WebSocket for notifications" style="rounded=1;whiteSpace=wrap;html=1;" vertex="1" parent="1"><mxGeometry x="80" y="120" width="320" height="140" as="geometry" /></mxCell><mxCell id="pe0" value="" style="endArrow=classic;" edge="1" parent="1" source="p_client" target="ingress"><mxGeometry relative="1" as="geometry" /></mxCell><mxCell id="api_box" value="API Service (Express)&#10;Modules: Auth, Notes, Quiz, Tutor, Forum&#10;REST + WebSocket" style="rounded=1;whiteSpace=wrap;html=1;" vertex="1" parent="1"><mxGeometry x="440" y="300" width="380" height="170" as="geometry" /></mxCell><mxCell id="pe1" value="" style="endArrow=classic;" edge="1" parent="1" source="ingress" target="api_box"><mxGeometry relative="1" as="geometry" /></mxCell><mxCell id="cache" value="Redis: cache, sessions, rate-limits, queue broker" style="rounded=1;whiteSpace=wrap;html=1;" vertex="1" parent="1"><mxGeometry x="860" y="300" width="320" height="110" as="geometry" /></mxCell><mxCell id="pe2" value="" style="endArrow=classic;" edge="1" parent="1" source="api_box" target="cache"><mxGeometry relative="1" as="geometry" /></mxCell><mxCell id="obj" value="Object Storage (MinIO/S3)&#10;raw uploads, transcripts, images" style="shape=cylinder3;whiteSpace=wrap;html=1;" vertex="1" parent="1"><mxGeometry x="860" y="450" width="320" height="150" as="geometry" /></mxCell><mxCell id="pe3" value="" style="endArrow=classic;" edge="1" parent="1" source="api_box" target="obj"><mxGeometry relative="1" as="geometry" /></mxCell><mxCell id="db" value="Postgres (+pgvector)&#10;application data + embeddings" style="shape=cylinder3;whiteSpace=wrap;html=1;" vertex="1" parent="1"><mxGeometry x="1240" y="300" width="320" height="170" as="geometry" /></mxCell><mxCell id="pe4" value="" style="endArrow=classic;" edge="1" parent="1" source="api_box" target="db"><mxGeometry relative="1" as="geometry" /></mxCell><mxCell id="worker" value="Async Worker(s)&#10;OCR, ASR, Summaries, Quiz gen, RAG indexing" style="rounded=1;whiteSpace=wrap;html=1;" vertex="1" parent="1"><mxGeometry x="1240" y="520" width="320" height="170" as="geometry" /></mxCell><mxCell id="pe5" value="" style="endArrow=classic;" edge="1" parent="1" source="cache" target="worker"><mxGeometry relative="1" as="geometry" /></mxCell><mxCell id="pe6" value="" style="endArrow=classic;" edge="1" parent="1" source="worker" target="obj"><mxGeometry relative="1" as="geometry" /></mxCell><mxCell id="pe7" value="" style="endArrow=classic;" edge="1" parent="1" source="worker" target="db"><mxGeometry relative="1" as="geometry" /></mxCell><mxCell id="ai" value="AI Providers (LLM, STT/TTS)&#10;OpenAI/Whisper/etc." style="rounded=1;whiteSpace=wrap;html=1;" vertex="1" parent="1"><mxGeometry x="1620" y="520" width="320" height="150" as="geometry" /></mxCell><mxCell id="pe8" value="" style="endArrow=classic;dashed=1;" edge="1" parent="1" source="worker" target="ai"><mxGeometry relative="1" as="geometry" /></mxCell><mxCell id="pe9" value="" style="endArrow=classic;dashed=1;" edge="1" parent="1" source="api_box" target="ai"><mxGeometry relative="1" as="geometry" /></mxCell><mxCell id="obs" value="Observability: OTel → Prometheus/Grafana; Log aggregator" style="rounded=1;whiteSpace=wrap;html=1;" vertex="1" parent="1"><mxGeometry x="860" y="140" width="700" height="110" as="geometry" /></mxCell><mxCell id="admin" value="Admin: pgAdmin, MinIO Console, Grafana" style="rounded=1;whiteSpace=wrap;html=1;" vertex="1" parent="1"><mxGeometry x="1240" y="120" width="320" height="90" as="geometry" /></mxCell></root></mxGraphModel></diagram></mxfile>